G75*
G70*
%OFA0B0*%
%FSLAX24Y24*%
%IPPOS*%
%LPD*%
%AMOC8*
5,1,8,0,0,1.08239X$1,22.5*
%
%ADD10C,0.0000*%
%ADD11R,0.0880X0.0880*%
%ADD12C,0.0880*%
%ADD13R,0.0670X0.0670*%
%ADD14C,0.0670*%
%ADD15C,0.1544*%
%ADD16C,0.0820*%
%ADD17R,0.0820X0.0820*%
%ADD18R,0.0630X0.0630*%
%ADD19C,0.0630*%
%ADD20C,0.1616*%
%ADD21C,0.0900*%
%ADD22C,0.0640*%
%ADD23C,0.0500*%
%ADD24C,0.1580*%
%ADD25C,0.5080*%
%ADD26C,0.3230*%
D10*
X000140Y000140D02*
X025140Y000140D01*
X025140Y035140D01*
X000140Y035140D01*
X000140Y000140D01*
D11*
X007940Y009140D03*
X007940Y019140D03*
D12*
X007940Y020518D03*
X007940Y021896D03*
X007940Y023274D03*
X007940Y024652D03*
X007940Y026030D03*
X007940Y016030D03*
X007940Y014652D03*
X007940Y013274D03*
X007940Y011896D03*
X007940Y010518D03*
D13*
X020190Y008390D03*
X020090Y028040D03*
D14*
X020090Y026860D03*
X020190Y007210D03*
D15*
X021890Y007800D03*
X021790Y027450D03*
D16*
X009040Y029490D03*
X009040Y031490D03*
X007040Y030490D03*
X001640Y020890D03*
X001640Y019890D03*
X001690Y017440D03*
X001690Y016440D03*
X001690Y015440D03*
X002090Y006090D03*
X001090Y006090D03*
X006940Y004190D03*
X007940Y006190D03*
X008940Y004190D03*
D17*
X001690Y014440D03*
X001640Y018890D03*
D18*
X021790Y014990D03*
X021790Y023040D03*
D19*
X021790Y022240D03*
X021790Y021440D03*
X021790Y020640D03*
X022790Y020240D03*
X022790Y021040D03*
X022790Y021840D03*
X022790Y022640D03*
X020840Y023240D03*
X020840Y024340D03*
X020840Y019990D03*
X020840Y018940D03*
X020840Y016290D03*
X020840Y015190D03*
X021790Y014190D03*
X021790Y013390D03*
X021790Y012590D03*
X022790Y012190D03*
X022790Y012990D03*
X022790Y013790D03*
X022790Y014590D03*
X020840Y011940D03*
X020840Y010890D03*
D20*
X023140Y011090D03*
X023140Y016090D03*
X023140Y019140D03*
X023140Y024140D03*
D21*
X021470Y024840D03*
X021470Y018440D03*
X021470Y016790D03*
X021470Y010390D03*
D22*
X017340Y016410D02*
X017340Y016970D01*
X016340Y016970D02*
X016340Y016410D01*
X016390Y018610D02*
X016390Y019170D01*
X017390Y019170D02*
X017390Y018610D01*
D23*
X016440Y021940D03*
X017390Y014390D03*
X011040Y006190D03*
X002790Y016190D03*
X003590Y018840D03*
X005640Y026140D03*
X001540Y008640D03*
X024240Y029190D03*
X024290Y008290D03*
D24*
X012640Y017640D03*
D25*
X012640Y022640D03*
X012640Y012640D03*
X022640Y002640D03*
X002640Y002640D03*
X002640Y032640D03*
X022640Y032640D03*
D26*
X004640Y022640D03*
X004640Y012690D03*
M02*
