G75*
G70*
%OFA0B0*%
%FSLAX24Y24*%
%IPPOS*%
%LPD*%
%AMOC8*
5,1,8,0,0,1.08239X$1,22.5*
%
%ADD10C,0.0000*%
%ADD11R,0.0480X0.0680*%
%ADD12R,0.0880X0.0880*%
%ADD13C,0.0880*%
%ADD14R,0.0670X0.0670*%
%ADD15C,0.0670*%
%ADD16C,0.1544*%
%ADD17R,0.0631X0.0474*%
%ADD18R,0.0680X0.0480*%
%ADD19C,0.0820*%
%ADD20R,0.0781X0.0678*%
%ADD21R,0.0820X0.0820*%
%ADD22R,0.0630X0.0630*%
%ADD23C,0.0630*%
%ADD24C,0.1616*%
%ADD25C,0.0900*%
%ADD26C,0.0640*%
%ADD27C,0.0500*%
%ADD28C,0.1580*%
%ADD29C,0.5080*%
%ADD30C,0.3230*%
D10*
X000140Y000140D02*
X025140Y000140D01*
X025140Y035140D01*
X000140Y035140D01*
X000140Y000140D01*
D11*
X004940Y009740D03*
X005640Y009740D03*
X011040Y003740D03*
X011740Y003740D03*
X011740Y002040D03*
X011040Y002040D03*
X014740Y003040D03*
X015440Y003040D03*
X005690Y019740D03*
X004990Y019740D03*
X011590Y031640D03*
X012290Y031640D03*
X012290Y033490D03*
X011590Y033490D03*
X016840Y020340D03*
X017540Y020340D03*
D12*
X007940Y019140D03*
X007940Y009140D03*
D13*
X007940Y010518D03*
X007940Y011896D03*
X007940Y013274D03*
X007940Y014652D03*
X007940Y016030D03*
X007940Y020518D03*
X007940Y021896D03*
X007940Y023274D03*
X007940Y024652D03*
X007940Y026030D03*
D14*
X020090Y028040D03*
X020190Y008390D03*
D15*
X020190Y007210D03*
X020090Y026860D03*
D16*
X021790Y027450D03*
X021890Y007800D03*
D17*
X013673Y003390D03*
X012807Y003016D03*
X012807Y003764D03*
X009323Y003164D03*
X009323Y002416D03*
X008457Y002790D03*
X014457Y032716D03*
X014457Y033464D03*
X015323Y033090D03*
X010273Y033540D03*
X009407Y033166D03*
X009407Y033914D03*
D18*
X004690Y028540D03*
X004690Y027840D03*
X002890Y027840D03*
X002890Y028540D03*
X002890Y026340D03*
X002890Y025640D03*
X002190Y010590D03*
X002190Y009890D03*
X003190Y007940D03*
X003190Y007240D03*
X004640Y007240D03*
X004640Y007940D03*
X014740Y015940D03*
X014740Y016640D03*
X017390Y013640D03*
X017390Y012940D03*
X017490Y021990D03*
X017490Y022690D03*
X018140Y032890D03*
X018140Y033590D03*
D19*
X009040Y031490D03*
X009040Y029490D03*
X007040Y030490D03*
X001640Y020890D03*
X001640Y019890D03*
X001690Y017440D03*
X001690Y016440D03*
X001690Y015440D03*
X002090Y006090D03*
X001090Y006090D03*
X006940Y004190D03*
X007940Y006190D03*
X008940Y004190D03*
D20*
X015590Y004711D03*
X016590Y004711D03*
X017590Y004711D03*
X017590Y008369D03*
X016590Y008369D03*
X015590Y008369D03*
X016140Y028061D03*
X017140Y028061D03*
X018140Y028061D03*
X018140Y031719D03*
X017140Y031719D03*
X016140Y031719D03*
D21*
X001640Y018890D03*
X001690Y014440D03*
D22*
X021790Y014990D03*
X021790Y023040D03*
D23*
X021790Y022240D03*
X021790Y021440D03*
X021790Y020640D03*
X022790Y020240D03*
X022790Y021040D03*
X022790Y021840D03*
X022790Y022640D03*
X020840Y023240D03*
X020840Y024340D03*
X020840Y019990D03*
X020840Y018940D03*
X020840Y016290D03*
X020840Y015190D03*
X021790Y014190D03*
X021790Y013390D03*
X021790Y012590D03*
X022790Y012190D03*
X022790Y012990D03*
X022790Y013790D03*
X022790Y014590D03*
X020840Y011940D03*
X020840Y010890D03*
D24*
X023140Y011090D03*
X023140Y016090D03*
X023140Y019140D03*
X023140Y024140D03*
D25*
X021470Y024840D03*
X021470Y018440D03*
X021470Y016790D03*
X021470Y010390D03*
D26*
X017340Y016410D02*
X017340Y016970D01*
X016340Y016970D02*
X016340Y016410D01*
X016390Y018610D02*
X016390Y019170D01*
X017390Y019170D02*
X017390Y018610D01*
D27*
X016440Y021940D03*
X017390Y014390D03*
X011040Y006190D03*
X002790Y016190D03*
X003590Y018840D03*
X005640Y026140D03*
X001540Y008640D03*
X024240Y029190D03*
X024290Y008290D03*
D28*
X012640Y017640D03*
D29*
X012640Y022640D03*
X012640Y012640D03*
X022640Y002640D03*
X002640Y002640D03*
X002640Y032640D03*
X022640Y032640D03*
D30*
X004640Y022640D03*
X004640Y012690D03*
M02*
