G75*
G70*
%OFA0B0*%
%FSLAX24Y24*%
%IPPOS*%
%LPD*%
%AMOC8*
5,1,8,0,0,1.08239X$1,22.5*
%
%ADD10C,0.0100*%
%ADD11C,0.0040*%
%ADD12R,0.1700X0.1300*%
%ADD13C,0.0060*%
%ADD14C,0.0080*%
%ADD15C,0.0050*%
%ADD16C,0.0217*%
D10*
X009790Y025340D02*
X015090Y025340D01*
X015090Y028790D01*
X009840Y028790D01*
X009790Y028790D02*
X009790Y025340D01*
X018690Y024840D02*
X018690Y018440D01*
X020990Y018440D01*
X022040Y018440D02*
X024140Y018440D01*
X024140Y024840D01*
X021990Y024840D01*
X020940Y024840D02*
X018690Y024840D01*
X019690Y025540D02*
X019690Y029340D01*
X023590Y029340D01*
X023590Y025540D01*
X019690Y025540D01*
X018690Y016790D02*
X020940Y016790D01*
X021990Y016790D02*
X024140Y016790D01*
X024140Y010390D01*
X022040Y010390D01*
X020990Y010390D02*
X018690Y010390D01*
X018690Y016790D01*
X019790Y009690D02*
X023690Y009690D01*
X023690Y005890D01*
X019790Y005890D01*
X019790Y009690D01*
D11*
X019860Y005570D02*
X020090Y005570D01*
X020167Y005494D01*
X020167Y005340D01*
X020090Y005263D01*
X019860Y005263D01*
X019860Y005110D02*
X019860Y005570D01*
X020320Y005494D02*
X020397Y005570D01*
X020551Y005570D01*
X020627Y005494D01*
X020627Y005417D01*
X020320Y005110D01*
X020627Y005110D01*
X017388Y001320D02*
X017542Y001167D01*
X017542Y000860D01*
X017542Y001090D02*
X017235Y001090D01*
X017235Y001167D02*
X017388Y001320D01*
X017235Y001167D02*
X017235Y000860D01*
X017081Y000860D02*
X016774Y000860D01*
X016928Y000860D02*
X016928Y001320D01*
X016774Y001167D01*
X016621Y001244D02*
X016621Y000937D01*
X016544Y000860D01*
X016391Y000860D01*
X016314Y000937D01*
X016621Y001244D01*
X016544Y001320D01*
X016391Y001320D01*
X016314Y001244D01*
X016314Y000937D01*
X016160Y000937D02*
X016160Y001244D01*
X015854Y000937D01*
X015930Y000860D01*
X016084Y000860D01*
X016160Y000937D01*
X015854Y000937D02*
X015854Y001244D01*
X015930Y001320D01*
X016084Y001320D01*
X016160Y001244D01*
X015700Y001244D02*
X015700Y000937D01*
X015623Y000860D01*
X015470Y000860D01*
X015393Y000937D01*
X015700Y001244D01*
X015623Y001320D01*
X015470Y001320D01*
X015393Y001244D01*
X015393Y000937D01*
X015240Y001090D02*
X015163Y001013D01*
X014933Y001013D01*
X014933Y000860D02*
X014933Y001320D01*
X015163Y001320D01*
X015240Y001244D01*
X015240Y001090D01*
X014779Y000860D02*
X014472Y000860D01*
X014472Y001320D01*
X014319Y001090D02*
X014012Y001090D01*
X013858Y001013D02*
X013858Y001320D01*
X013552Y001320D02*
X013552Y001013D01*
X013705Y000860D01*
X013858Y001013D01*
X013398Y001013D02*
X013398Y000937D01*
X013321Y000860D01*
X013168Y000860D01*
X013091Y000937D01*
X013168Y001090D02*
X013091Y001167D01*
X013091Y001244D01*
X013168Y001320D01*
X013321Y001320D01*
X013398Y001244D01*
X013321Y001090D02*
X013398Y001013D01*
X013321Y001090D02*
X013168Y001090D01*
X012938Y001090D02*
X012631Y001090D01*
X012477Y001320D02*
X012170Y001320D01*
X012170Y000860D01*
X012170Y001090D02*
X012324Y001090D01*
X012017Y001320D02*
X011863Y001320D01*
X011940Y001320D02*
X011940Y000937D01*
X011863Y000860D01*
X011787Y000860D01*
X011710Y000937D01*
X011808Y002610D02*
X011731Y002687D01*
X011731Y002763D01*
X011808Y002840D01*
X011961Y002840D01*
X012038Y002763D01*
X012038Y002687D01*
X011961Y002610D01*
X011808Y002610D01*
X011808Y002840D02*
X011731Y002917D01*
X011731Y002994D01*
X011808Y003070D01*
X011961Y003070D01*
X012038Y002994D01*
X012038Y002917D01*
X011961Y002840D01*
X011577Y002610D02*
X011270Y002610D01*
X011117Y002610D02*
X010963Y002763D01*
X011040Y002763D02*
X010810Y002763D01*
X010810Y002610D02*
X010810Y003070D01*
X011040Y003070D01*
X011117Y002994D01*
X011117Y002840D01*
X011040Y002763D01*
X011270Y002917D02*
X011424Y003070D01*
X011424Y002610D01*
X011446Y004360D02*
X011139Y004360D01*
X010986Y004360D02*
X010832Y004513D01*
X010909Y004513D02*
X010679Y004513D01*
X010679Y004360D02*
X010679Y004820D01*
X010909Y004820D01*
X010986Y004744D01*
X010986Y004590D01*
X010909Y004513D01*
X011139Y004667D02*
X011293Y004820D01*
X011293Y004360D01*
X011600Y004437D02*
X011676Y004360D01*
X011830Y004360D01*
X011907Y004437D01*
X011907Y004744D01*
X011830Y004820D01*
X011676Y004820D01*
X011600Y004744D01*
X011600Y004667D01*
X011676Y004590D01*
X011907Y004590D01*
X012860Y004594D02*
X012860Y004287D01*
X012937Y004210D01*
X013090Y004210D01*
X013167Y004287D01*
X013167Y004594D01*
X013090Y004670D01*
X012937Y004670D01*
X012860Y004594D01*
X013013Y004363D02*
X013167Y004210D01*
X013320Y004440D02*
X013627Y004440D01*
X013551Y004210D02*
X013551Y004670D01*
X013320Y004440D01*
X014710Y004120D02*
X014710Y003660D01*
X014710Y003813D02*
X014940Y003813D01*
X015017Y003890D01*
X015017Y004044D01*
X014940Y004120D01*
X014710Y004120D01*
X014863Y003813D02*
X015017Y003660D01*
X015170Y003660D02*
X015477Y003967D01*
X015477Y004044D01*
X015401Y004120D01*
X015247Y004120D01*
X015170Y004044D01*
X015170Y003660D02*
X015477Y003660D01*
X015631Y003737D02*
X015938Y004044D01*
X015938Y003737D01*
X015861Y003660D01*
X015708Y003660D01*
X015631Y003737D01*
X015631Y004044D01*
X015708Y004120D01*
X015861Y004120D01*
X015938Y004044D01*
X010327Y008437D02*
X010251Y008360D01*
X010097Y008360D01*
X010020Y008437D01*
X010020Y008590D02*
X010174Y008667D01*
X010251Y008667D01*
X010327Y008590D01*
X010327Y008437D01*
X010020Y008590D02*
X010020Y008820D01*
X010327Y008820D01*
X009867Y008820D02*
X009713Y008820D01*
X009790Y008820D02*
X009790Y008437D01*
X009713Y008360D01*
X009637Y008360D01*
X009560Y008437D01*
X009401Y006970D02*
X009247Y006970D01*
X009170Y006894D01*
X009017Y006894D02*
X009017Y006740D01*
X008940Y006663D01*
X008710Y006663D01*
X008710Y006510D02*
X008710Y006970D01*
X008940Y006970D01*
X009017Y006894D01*
X008863Y006663D02*
X009017Y006510D01*
X009170Y006510D02*
X009477Y006817D01*
X009477Y006894D01*
X009401Y006970D01*
X009631Y006817D02*
X009784Y006970D01*
X009784Y006510D01*
X009631Y006510D02*
X009938Y006510D01*
X009477Y006510D02*
X009170Y006510D01*
X008230Y002370D02*
X008076Y002370D01*
X008000Y002294D01*
X007846Y002294D02*
X007846Y001987D01*
X007769Y001910D01*
X007616Y001910D01*
X007539Y001987D01*
X007539Y002294D01*
X007616Y002370D01*
X007769Y002370D01*
X007846Y002294D01*
X007693Y002063D02*
X007846Y001910D01*
X008000Y001987D02*
X008076Y001910D01*
X008230Y001910D01*
X008307Y001987D01*
X008307Y002063D01*
X008230Y002140D01*
X008153Y002140D01*
X008230Y002140D02*
X008307Y002217D01*
X008307Y002294D01*
X008230Y002370D01*
X005670Y006979D02*
X005210Y006979D01*
X005210Y007209D01*
X005286Y007286D01*
X005440Y007286D01*
X005517Y007209D01*
X005517Y006979D01*
X005517Y007132D02*
X005670Y007286D01*
X005670Y007439D02*
X005670Y007746D01*
X005670Y007593D02*
X005210Y007593D01*
X005363Y007439D01*
X005210Y007900D02*
X005210Y008207D01*
X005286Y008207D01*
X005593Y007900D01*
X005670Y007900D01*
X004120Y007877D02*
X004120Y007570D01*
X004120Y007417D02*
X003967Y007263D01*
X003967Y007340D02*
X003967Y007110D01*
X004120Y007110D02*
X003660Y007110D01*
X003660Y007340D01*
X003736Y007417D01*
X003890Y007417D01*
X003967Y007340D01*
X003813Y007570D02*
X003660Y007724D01*
X004120Y007724D01*
X004043Y008031D02*
X004120Y008108D01*
X004120Y008261D01*
X004043Y008338D01*
X003890Y008338D01*
X003813Y008261D01*
X003813Y008184D01*
X003890Y008031D01*
X003660Y008031D01*
X003660Y008338D01*
X002320Y007961D02*
X002243Y008038D01*
X002090Y008038D01*
X002090Y007884D01*
X002243Y007731D02*
X001936Y007731D01*
X001860Y007808D01*
X001860Y007961D01*
X001936Y008038D01*
X002243Y007731D02*
X002320Y007808D01*
X002320Y007961D01*
X002167Y007577D02*
X001860Y007577D01*
X002167Y007577D02*
X002320Y007424D01*
X002167Y007270D01*
X001860Y007270D01*
X001936Y007117D02*
X001860Y007040D01*
X001860Y006887D01*
X001936Y006810D01*
X002013Y006810D01*
X002090Y006887D01*
X002090Y007117D01*
X002243Y007117D02*
X001936Y007117D01*
X002243Y007117D02*
X002320Y007040D01*
X002320Y006887D01*
X002243Y006810D01*
X001270Y006887D02*
X001270Y007040D01*
X001193Y007117D01*
X001040Y007117D01*
X001040Y006963D01*
X001193Y006810D02*
X001270Y006887D01*
X001193Y006810D02*
X000886Y006810D01*
X000810Y006887D01*
X000810Y007040D01*
X000886Y007117D01*
X000810Y007270D02*
X001270Y007577D01*
X000810Y007577D01*
X000810Y007731D02*
X000810Y007961D01*
X000886Y008038D01*
X001193Y008038D01*
X001270Y007961D01*
X001270Y007731D01*
X000810Y007731D01*
X000810Y007270D02*
X001270Y007270D01*
X001210Y009710D02*
X001210Y009940D01*
X001286Y010017D01*
X001440Y010017D01*
X001517Y009940D01*
X001517Y009710D01*
X001670Y009710D02*
X001210Y009710D01*
X001517Y009863D02*
X001670Y010017D01*
X001670Y010170D02*
X001670Y010477D01*
X001670Y010324D02*
X001210Y010324D01*
X001363Y010170D01*
X001440Y010631D02*
X001440Y010861D01*
X001517Y010938D01*
X001593Y010938D01*
X001670Y010861D01*
X001670Y010708D01*
X001593Y010631D01*
X001440Y010631D01*
X001286Y010784D01*
X001210Y010938D01*
X001187Y013060D02*
X001263Y013060D01*
X001340Y013137D01*
X001340Y013520D01*
X001263Y013520D02*
X001417Y013520D01*
X001570Y013520D02*
X001570Y013060D01*
X001570Y013213D02*
X001801Y013213D01*
X001877Y013290D01*
X001877Y013444D01*
X001801Y013520D01*
X001570Y013520D01*
X002031Y013520D02*
X002031Y013290D01*
X002184Y013367D01*
X002261Y013367D01*
X002338Y013290D01*
X002338Y013137D01*
X002261Y013060D01*
X002108Y013060D01*
X002031Y013137D01*
X002031Y013520D02*
X002338Y013520D01*
X002937Y014410D02*
X003090Y014410D01*
X003167Y014487D01*
X003167Y014640D01*
X003013Y014640D01*
X002860Y014487D02*
X002937Y014410D01*
X002860Y014487D02*
X002860Y014794D01*
X002937Y014870D01*
X003090Y014870D01*
X003167Y014794D01*
X003320Y014870D02*
X003320Y014410D01*
X003627Y014410D02*
X003627Y014870D01*
X003781Y014870D02*
X004011Y014870D01*
X004088Y014794D01*
X004088Y014487D01*
X004011Y014410D01*
X003781Y014410D01*
X003781Y014870D01*
X003781Y015210D02*
X004011Y015210D01*
X004088Y015287D01*
X004088Y015594D01*
X004011Y015670D01*
X003781Y015670D01*
X003781Y015210D01*
X003627Y015210D02*
X003627Y015670D01*
X003320Y015670D02*
X003320Y015210D01*
X003167Y015287D02*
X003167Y015440D01*
X003013Y015440D01*
X002860Y015287D02*
X002937Y015210D01*
X003090Y015210D01*
X003167Y015287D01*
X003167Y015594D02*
X003090Y015670D01*
X002937Y015670D01*
X002860Y015594D01*
X002860Y015287D01*
X003320Y015670D02*
X003627Y015210D01*
X003320Y014870D02*
X003627Y014410D01*
X004241Y014333D02*
X004548Y014333D01*
X004702Y014487D02*
X004778Y014410D01*
X004932Y014410D01*
X005008Y014487D01*
X005008Y014640D01*
X004932Y014717D01*
X004855Y014717D01*
X004702Y014640D01*
X004702Y014870D01*
X005008Y014870D01*
X005162Y014870D02*
X005162Y014563D01*
X005315Y014410D01*
X005469Y014563D01*
X005469Y014870D01*
X005315Y015210D02*
X005162Y015363D01*
X005162Y015670D01*
X005008Y015594D02*
X005008Y015287D01*
X004932Y015210D01*
X004778Y015210D01*
X004702Y015287D01*
X004778Y015440D02*
X005008Y015440D01*
X005008Y015594D02*
X004932Y015670D01*
X004778Y015670D01*
X004702Y015594D01*
X004702Y015517D01*
X004778Y015440D01*
X004548Y015133D02*
X004241Y015133D01*
X004234Y016260D02*
X004388Y016413D01*
X004388Y016720D01*
X004081Y016720D02*
X004081Y016413D01*
X004234Y016260D01*
X003927Y016337D02*
X003927Y016644D01*
X003851Y016720D01*
X003697Y016720D01*
X003620Y016644D01*
X003620Y016567D01*
X003697Y016490D01*
X003927Y016490D01*
X003927Y016337D02*
X003851Y016260D01*
X003697Y016260D01*
X003620Y016337D01*
X003467Y016490D02*
X003160Y016490D01*
X003313Y016337D02*
X003313Y016644D01*
X003313Y017387D02*
X003313Y017694D01*
X003160Y017540D02*
X003467Y017540D01*
X003620Y017540D02*
X003620Y017770D01*
X003927Y017770D01*
X004081Y017770D02*
X004081Y017463D01*
X004234Y017310D01*
X004388Y017463D01*
X004388Y017770D01*
X003927Y017540D02*
X003927Y017387D01*
X003851Y017310D01*
X003697Y017310D01*
X003620Y017387D01*
X003620Y017540D02*
X003774Y017617D01*
X003851Y017617D01*
X003927Y017540D01*
X003627Y018710D02*
X003320Y018710D01*
X003167Y018710D02*
X002860Y018710D01*
X002860Y019170D01*
X002860Y019610D02*
X003167Y019610D01*
X003320Y019610D02*
X003627Y019917D01*
X003627Y019994D01*
X003551Y020070D01*
X003397Y020070D01*
X003320Y019994D01*
X003320Y019610D02*
X003627Y019610D01*
X003474Y019170D02*
X003474Y018710D01*
X003320Y019017D02*
X003474Y019170D01*
X002860Y019610D02*
X002860Y020070D01*
X002963Y020787D02*
X002963Y021094D01*
X002810Y020940D02*
X003117Y020940D01*
X003270Y020863D02*
X003424Y020710D01*
X003577Y020863D01*
X003577Y021170D01*
X003270Y021170D02*
X003270Y020863D01*
X002338Y021610D02*
X002031Y021610D01*
X002184Y021610D02*
X002184Y022070D01*
X002031Y021917D01*
X001877Y021994D02*
X001877Y021840D01*
X001801Y021763D01*
X001570Y021763D01*
X001570Y021610D02*
X001570Y022070D01*
X001801Y022070D01*
X001877Y021994D01*
X001417Y022070D02*
X001263Y022070D01*
X001340Y022070D02*
X001340Y021687D01*
X001263Y021610D01*
X001187Y021610D01*
X001110Y021687D01*
X001960Y025539D02*
X001960Y025769D01*
X002036Y025846D01*
X002190Y025846D01*
X002267Y025769D01*
X002267Y025539D01*
X002420Y025539D02*
X001960Y025539D01*
X002267Y025693D02*
X002420Y025846D01*
X002343Y026000D02*
X002420Y026076D01*
X002420Y026230D01*
X002343Y026307D01*
X002190Y026307D01*
X002113Y026230D01*
X002113Y026153D01*
X002190Y026000D01*
X001960Y026000D01*
X001960Y026307D01*
X001810Y027810D02*
X001810Y028040D01*
X001886Y028117D01*
X002040Y028117D01*
X002117Y028040D01*
X002117Y027810D01*
X002270Y027810D02*
X001810Y027810D01*
X002117Y027963D02*
X002270Y028117D01*
X002193Y028270D02*
X002270Y028347D01*
X002270Y028501D01*
X002193Y028577D01*
X002117Y028577D01*
X002040Y028501D01*
X002040Y028270D01*
X002193Y028270D01*
X002040Y028270D02*
X001886Y028424D01*
X001810Y028577D01*
X003810Y028380D02*
X004040Y028150D01*
X004040Y028457D01*
X004270Y028380D02*
X003810Y028380D01*
X003886Y027996D02*
X004040Y027996D01*
X004117Y027919D01*
X004117Y027689D01*
X004270Y027689D02*
X003810Y027689D01*
X003810Y027919D01*
X003886Y027996D01*
X004117Y027843D02*
X004270Y027996D01*
X009310Y030310D02*
X009310Y030770D01*
X009540Y030770D01*
X009617Y030694D01*
X009617Y030540D01*
X009540Y030463D01*
X009310Y030463D01*
X009463Y030463D02*
X009617Y030310D01*
X009770Y030310D02*
X010077Y030310D01*
X009924Y030310D02*
X009924Y030770D01*
X009770Y030617D01*
X010231Y030694D02*
X010231Y030387D01*
X010538Y030694D01*
X010538Y030387D01*
X010461Y030310D01*
X010308Y030310D01*
X010231Y030387D01*
X010231Y030694D02*
X010308Y030770D01*
X010461Y030770D01*
X010538Y030694D01*
X010277Y032360D02*
X009970Y032360D01*
X009817Y032360D02*
X009663Y032513D01*
X009587Y032360D02*
X009510Y032437D01*
X009510Y032744D01*
X009587Y032820D01*
X009740Y032820D01*
X009817Y032744D01*
X009817Y032437D01*
X009740Y032360D01*
X009587Y032360D01*
X009970Y032667D02*
X010124Y032820D01*
X010124Y032360D01*
X011539Y032560D02*
X011539Y033020D01*
X011769Y033020D01*
X011846Y032944D01*
X011846Y032790D01*
X011769Y032713D01*
X011539Y032713D01*
X011693Y032713D02*
X011846Y032560D01*
X012000Y032637D02*
X012000Y032713D01*
X012076Y032790D01*
X012230Y032790D01*
X012307Y032713D01*
X012307Y032637D01*
X012230Y032560D01*
X012076Y032560D01*
X012000Y032637D01*
X012076Y032790D02*
X012000Y032867D01*
X012000Y032944D01*
X012076Y033020D01*
X012230Y033020D01*
X012307Y032944D01*
X012307Y032867D01*
X012230Y032790D01*
X012760Y034160D02*
X012760Y034620D01*
X012760Y034390D02*
X013067Y034390D01*
X013220Y034390D02*
X013527Y034390D01*
X013527Y034620D02*
X013527Y034160D01*
X013681Y034160D02*
X013681Y034620D01*
X013834Y034467D01*
X013988Y034620D01*
X013988Y034160D01*
X014141Y034160D02*
X014295Y034160D01*
X014218Y034160D02*
X014218Y034620D01*
X014141Y034620D02*
X014295Y034620D01*
X014908Y034237D02*
X014985Y034160D01*
X015062Y034160D01*
X015139Y034237D01*
X015139Y034620D01*
X015215Y034620D02*
X015062Y034620D01*
X015369Y034237D02*
X015446Y034313D01*
X015676Y034313D01*
X015676Y034390D02*
X015676Y034160D01*
X015446Y034160D01*
X015369Y034237D01*
X015446Y034467D02*
X015599Y034467D01*
X015676Y034390D01*
X015829Y034467D02*
X016059Y034467D01*
X016136Y034390D01*
X016136Y034160D01*
X016290Y034237D02*
X016290Y034390D01*
X016366Y034467D01*
X016520Y034467D01*
X016597Y034390D01*
X016597Y034313D01*
X016290Y034313D01*
X016290Y034237D02*
X016366Y034160D01*
X016520Y034160D01*
X016750Y034160D02*
X016904Y034160D01*
X016827Y034160D02*
X016827Y034620D01*
X016750Y034620D01*
X017057Y034467D02*
X017134Y034467D01*
X017134Y034160D01*
X017210Y034160D02*
X017057Y034160D01*
X017364Y034237D02*
X017441Y034313D01*
X017671Y034313D01*
X017671Y034390D02*
X017671Y034160D01*
X017441Y034160D01*
X017364Y034237D01*
X017441Y034467D02*
X017594Y034467D01*
X017671Y034390D01*
X017134Y034620D02*
X017134Y034697D01*
X017186Y033577D02*
X017110Y033501D01*
X017110Y033347D01*
X017186Y033270D01*
X017263Y033270D01*
X017340Y033347D01*
X017340Y033577D01*
X017493Y033577D02*
X017570Y033501D01*
X017570Y033347D01*
X017493Y033270D01*
X017570Y033117D02*
X017417Y032963D01*
X017417Y033040D02*
X017417Y032810D01*
X017570Y032810D02*
X017110Y032810D01*
X017110Y033040D01*
X017186Y033117D01*
X017340Y033117D01*
X017417Y033040D01*
X017493Y033577D02*
X017186Y033577D01*
X018285Y034160D02*
X018285Y034620D01*
X018592Y034620D01*
X018822Y034467D02*
X018975Y034467D01*
X019052Y034390D01*
X019052Y034160D01*
X018822Y034160D01*
X018745Y034237D01*
X018822Y034313D01*
X019052Y034313D01*
X019205Y034313D02*
X019359Y034467D01*
X019436Y034467D01*
X019589Y034467D02*
X019589Y034160D01*
X019743Y034160D02*
X019743Y034390D01*
X019819Y034467D01*
X019896Y034390D01*
X019896Y034160D01*
X019743Y034390D02*
X019666Y034467D01*
X019589Y034467D01*
X019205Y034467D02*
X019205Y034160D01*
X018438Y034390D02*
X018285Y034390D01*
X015829Y034467D02*
X015829Y034160D01*
X014951Y032370D02*
X014797Y032370D01*
X014720Y032294D01*
X014567Y032294D02*
X014567Y031987D01*
X014490Y031910D01*
X014337Y031910D01*
X014260Y031987D01*
X014260Y032294D01*
X014337Y032370D01*
X014490Y032370D01*
X014567Y032294D01*
X014413Y032063D02*
X014567Y031910D01*
X014720Y031910D02*
X015027Y032217D01*
X015027Y032294D01*
X014951Y032370D01*
X015027Y031910D02*
X014720Y031910D01*
X013220Y034160D02*
X013220Y034620D01*
X013067Y034620D02*
X013067Y034160D01*
X012427Y031170D02*
X012120Y031170D01*
X011967Y031094D02*
X011967Y030940D01*
X011890Y030863D01*
X011660Y030863D01*
X011660Y030710D02*
X011660Y031170D01*
X011890Y031170D01*
X011967Y031094D01*
X011813Y030863D02*
X011967Y030710D01*
X012120Y030710D02*
X012120Y030787D01*
X012427Y031094D01*
X012427Y031170D01*
X012531Y028620D02*
X012838Y028160D01*
X012838Y028620D01*
X012991Y028390D02*
X013298Y028390D01*
X013259Y027770D02*
X013029Y027770D01*
X013029Y027310D01*
X013259Y027310D01*
X013336Y027387D01*
X013336Y027694D01*
X013259Y027770D01*
X012876Y027770D02*
X012569Y027770D01*
X012569Y027310D01*
X012876Y027310D01*
X012722Y027540D02*
X012569Y027540D01*
X012415Y027770D02*
X012108Y027770D01*
X012262Y027770D02*
X012262Y027310D01*
X011955Y027310D02*
X011955Y027617D01*
X011802Y027770D01*
X011648Y027617D01*
X011648Y027310D01*
X011495Y027310D02*
X011188Y027310D01*
X011188Y027770D01*
X011034Y027694D02*
X011034Y027387D01*
X010958Y027310D01*
X010804Y027310D01*
X010727Y027387D01*
X010727Y027694D01*
X010804Y027770D01*
X010958Y027770D01*
X011034Y027694D01*
X010881Y028160D02*
X010881Y028620D01*
X011111Y028620D01*
X011188Y028544D01*
X011188Y028390D01*
X011111Y028313D01*
X010881Y028313D01*
X011034Y028313D02*
X011188Y028160D01*
X011610Y028160D02*
X011610Y028620D01*
X011917Y028160D01*
X011917Y028620D01*
X012070Y028544D02*
X012070Y028237D01*
X012147Y028160D01*
X012301Y028160D01*
X012377Y028237D01*
X012377Y028544D01*
X012301Y028620D01*
X012147Y028620D01*
X012070Y028544D01*
X012531Y028620D02*
X012531Y028160D01*
X011955Y027540D02*
X011648Y027540D01*
X011621Y026970D02*
X011698Y026894D01*
X011698Y026740D01*
X011621Y026663D01*
X011391Y026663D01*
X011391Y026510D02*
X011391Y026970D01*
X011621Y026970D01*
X011852Y026970D02*
X011852Y026510D01*
X012158Y026510D01*
X012312Y026510D02*
X012312Y026970D01*
X012542Y026970D01*
X012619Y026894D01*
X012619Y026740D01*
X012542Y026663D01*
X012312Y026663D01*
X012465Y026663D02*
X012619Y026510D01*
X012799Y026170D02*
X012953Y026170D01*
X013029Y026094D01*
X013029Y026017D01*
X012953Y025940D01*
X013029Y025863D01*
X013029Y025787D01*
X012953Y025710D01*
X012799Y025710D01*
X012722Y025787D01*
X012876Y025940D02*
X012953Y025940D01*
X013183Y025940D02*
X013490Y025940D01*
X013643Y025940D02*
X013950Y025940D01*
X013873Y025710D02*
X013873Y026170D01*
X013643Y025940D01*
X013720Y026560D02*
X013720Y027020D01*
X013951Y027020D01*
X014027Y026944D01*
X014027Y026790D01*
X013951Y026713D01*
X013720Y026713D01*
X013490Y026637D02*
X013490Y027020D01*
X013413Y027020D02*
X013567Y027020D01*
X013787Y027310D02*
X013940Y027310D01*
X014017Y027387D01*
X014017Y027770D01*
X014170Y027694D02*
X014170Y027617D01*
X014247Y027540D01*
X014401Y027540D01*
X014477Y027463D01*
X014477Y027387D01*
X014401Y027310D01*
X014247Y027310D01*
X014170Y027387D01*
X014170Y027694D02*
X014247Y027770D01*
X014401Y027770D01*
X014477Y027694D01*
X014631Y027770D02*
X014631Y027310D01*
X014938Y027310D01*
X014784Y027540D02*
X014631Y027540D01*
X014631Y027770D02*
X014938Y027770D01*
X014488Y027020D02*
X014181Y027020D01*
X014181Y026790D01*
X014334Y026867D01*
X014411Y026867D01*
X014488Y026790D01*
X014488Y026637D01*
X014411Y026560D01*
X014258Y026560D01*
X014181Y026637D01*
X013787Y027310D02*
X013710Y027387D01*
X013710Y027770D01*
X013490Y026637D02*
X013413Y026560D01*
X013337Y026560D01*
X013260Y026637D01*
X012799Y026170D02*
X012722Y026094D01*
X012108Y025863D02*
X011955Y025710D01*
X011878Y025710D01*
X011802Y025787D01*
X011802Y025863D01*
X011955Y026017D01*
X011955Y026094D01*
X011878Y026170D01*
X011802Y026094D01*
X011802Y026017D01*
X012108Y025710D01*
X011188Y025710D02*
X010881Y025710D01*
X011188Y026017D01*
X011188Y026094D01*
X011111Y026170D01*
X010958Y026170D01*
X010881Y026094D01*
X010727Y025940D02*
X010420Y025940D01*
X010267Y025710D02*
X009960Y025710D01*
X010113Y025710D02*
X010113Y026170D01*
X009960Y026017D01*
X010087Y026510D02*
X010163Y026510D01*
X010240Y026587D01*
X010240Y026970D01*
X010163Y026970D02*
X010317Y026970D01*
X010470Y026970D02*
X010470Y026587D01*
X010547Y026510D01*
X010701Y026510D01*
X010777Y026587D01*
X010777Y026970D01*
X010931Y026970D02*
X010931Y026510D01*
X011238Y026510D02*
X011238Y026970D01*
X011084Y026817D01*
X010931Y026970D01*
X010574Y027387D02*
X010497Y027310D01*
X010344Y027310D01*
X010267Y027387D01*
X010344Y027540D02*
X010497Y027540D01*
X010574Y027463D01*
X010574Y027387D01*
X010344Y027540D02*
X010267Y027617D01*
X010267Y027694D01*
X010344Y027770D01*
X010497Y027770D01*
X010574Y027694D01*
X010113Y027770D02*
X009960Y027770D01*
X010037Y027770D02*
X010037Y027310D01*
X010113Y027310D02*
X009960Y027310D01*
X010010Y026587D02*
X010087Y026510D01*
X009960Y028160D02*
X009960Y028620D01*
X010267Y028620D01*
X010420Y028544D02*
X010420Y028237D01*
X010497Y028160D01*
X010651Y028160D01*
X010727Y028237D01*
X010727Y028544D01*
X010651Y028620D01*
X010497Y028620D01*
X010420Y028544D01*
X010113Y028390D02*
X009960Y028390D01*
X011852Y026970D02*
X012158Y026970D01*
X012005Y026740D02*
X011852Y026740D01*
X016939Y021270D02*
X016939Y020810D01*
X016939Y020963D02*
X017169Y020963D01*
X017246Y021040D01*
X017246Y021194D01*
X017169Y021270D01*
X016939Y021270D01*
X017093Y020963D02*
X017246Y020810D01*
X017400Y020810D02*
X017707Y021117D01*
X017707Y021194D01*
X017630Y021270D01*
X017476Y021270D01*
X017400Y021194D01*
X017400Y020810D02*
X017707Y020810D01*
X017960Y021810D02*
X017960Y022040D01*
X018036Y022117D01*
X018190Y022117D01*
X018267Y022040D01*
X018267Y021810D01*
X018420Y021810D02*
X017960Y021810D01*
X018267Y021963D02*
X018420Y022117D01*
X018420Y022270D02*
X018420Y022577D01*
X018420Y022424D02*
X017960Y022424D01*
X018113Y022270D01*
X018113Y022731D02*
X017960Y022884D01*
X018420Y022884D01*
X018420Y022731D02*
X018420Y023038D01*
X018487Y025160D02*
X018410Y025237D01*
X018487Y025160D02*
X018563Y025160D01*
X018640Y025237D01*
X018640Y025620D01*
X018563Y025620D02*
X018717Y025620D01*
X018870Y025390D02*
X019177Y025390D01*
X019101Y025160D02*
X019101Y025620D01*
X018870Y025390D01*
X020310Y029660D02*
X020310Y030120D01*
X020540Y030120D01*
X020617Y030044D01*
X020617Y029890D01*
X020540Y029813D01*
X020310Y029813D01*
X020770Y029660D02*
X021077Y029660D01*
X020924Y029660D02*
X020924Y030120D01*
X020770Y029967D01*
X020027Y017470D02*
X019874Y017394D01*
X019720Y017240D01*
X019951Y017240D01*
X020027Y017163D01*
X020027Y017087D01*
X019951Y017010D01*
X019797Y017010D01*
X019720Y017087D01*
X019720Y017240D01*
X019490Y017087D02*
X019490Y017470D01*
X019413Y017470D02*
X019567Y017470D01*
X019490Y017087D02*
X019413Y017010D01*
X019337Y017010D01*
X019260Y017087D01*
X016870Y013857D02*
X016870Y013550D01*
X016563Y013857D01*
X016486Y013857D01*
X016410Y013780D01*
X016410Y013626D01*
X016486Y013550D01*
X016486Y013396D02*
X016410Y013319D01*
X016410Y013166D01*
X016486Y013089D01*
X016486Y012936D02*
X016410Y012859D01*
X016410Y012629D01*
X016870Y012629D01*
X016717Y012629D02*
X016717Y012859D01*
X016640Y012936D01*
X016486Y012936D01*
X016717Y012782D02*
X016870Y012936D01*
X016870Y013089D02*
X016563Y013396D01*
X016486Y013396D01*
X016870Y013396D02*
X016870Y013089D01*
X014170Y015629D02*
X013710Y015629D01*
X013710Y015859D01*
X013786Y015936D01*
X013940Y015936D01*
X014017Y015859D01*
X014017Y015629D01*
X014017Y015782D02*
X014170Y015936D01*
X014170Y016089D02*
X014170Y016396D01*
X014170Y016243D02*
X013710Y016243D01*
X013863Y016089D01*
X013786Y016550D02*
X013710Y016626D01*
X013710Y016780D01*
X013786Y016857D01*
X013863Y016857D01*
X013940Y016780D01*
X014017Y016857D01*
X014093Y016857D01*
X014170Y016780D01*
X014170Y016626D01*
X014093Y016550D01*
X013940Y016703D02*
X013940Y016780D01*
X010307Y018287D02*
X010230Y018210D01*
X010076Y018210D01*
X010000Y018287D01*
X010153Y018440D02*
X010230Y018440D01*
X010307Y018363D01*
X010307Y018287D01*
X010230Y018440D02*
X010307Y018517D01*
X010307Y018594D01*
X010230Y018670D01*
X010076Y018670D01*
X010000Y018594D01*
X009846Y018670D02*
X009693Y018670D01*
X009769Y018670D02*
X009769Y018287D01*
X009693Y018210D01*
X009616Y018210D01*
X009539Y018287D01*
X005777Y020310D02*
X005470Y020310D01*
X005317Y020310D02*
X005163Y020463D01*
X005240Y020463D02*
X005010Y020463D01*
X005010Y020310D02*
X005010Y020770D01*
X005240Y020770D01*
X005317Y020694D01*
X005317Y020540D01*
X005240Y020463D01*
X005470Y020617D02*
X005624Y020770D01*
X005624Y020310D01*
X005469Y015670D02*
X005469Y015363D01*
X005315Y015210D01*
X005424Y010720D02*
X005424Y010260D01*
X005577Y010260D02*
X005270Y010260D01*
X005117Y010260D02*
X004963Y010413D01*
X005040Y010413D02*
X004810Y010413D01*
X004810Y010260D02*
X004810Y010720D01*
X005040Y010720D01*
X005117Y010644D01*
X005117Y010490D01*
X005040Y010413D01*
X005270Y010567D02*
X005424Y010720D01*
X005731Y010644D02*
X005808Y010720D01*
X005961Y010720D01*
X006038Y010644D01*
X006038Y010567D01*
X005731Y010260D01*
X006038Y010260D01*
X001187Y013060D02*
X001110Y013137D01*
D12*
X018840Y001140D03*
D13*
X018307Y005288D02*
X014864Y005288D01*
X014864Y007792D01*
X018307Y007792D01*
X018307Y005491D01*
X014903Y005491D01*
X014810Y003390D02*
X015370Y003390D01*
X015370Y002690D02*
X014810Y002690D01*
X011670Y002390D02*
X011110Y002390D01*
X011110Y001690D02*
X011670Y001690D01*
X011670Y003390D02*
X011110Y003390D01*
X011110Y004090D02*
X011670Y004090D01*
X005570Y009390D02*
X005010Y009390D01*
X005010Y010090D02*
X005570Y010090D01*
X004990Y007870D02*
X004990Y007310D01*
X004290Y007310D02*
X004290Y007870D01*
X003540Y007870D02*
X003540Y007310D01*
X002840Y007310D02*
X002840Y007870D01*
X002540Y009960D02*
X002540Y010520D01*
X001840Y010520D02*
X001840Y009960D01*
X005060Y019390D02*
X005620Y019390D01*
X005620Y020090D02*
X005060Y020090D01*
X003240Y025710D02*
X003240Y026270D01*
X002540Y026270D02*
X002540Y025710D01*
X002540Y027910D02*
X002540Y028470D01*
X003240Y028470D02*
X003240Y027910D01*
X004340Y027910D02*
X004340Y028470D01*
X005040Y028470D02*
X005040Y027910D01*
X011660Y031290D02*
X012220Y031290D01*
X012220Y031990D02*
X011660Y031990D01*
X011660Y033140D02*
X012220Y033140D01*
X012220Y033840D02*
X011660Y033840D01*
X015423Y031142D02*
X015423Y030939D01*
X018827Y030939D01*
X018866Y031142D02*
X018866Y028638D01*
X015423Y028638D01*
X015423Y030939D01*
X015423Y031142D02*
X018866Y031142D01*
X018490Y032960D02*
X018490Y033520D01*
X017790Y033520D02*
X017790Y032960D01*
X017840Y022620D02*
X017840Y022060D01*
X017140Y022060D02*
X017140Y022620D01*
X016910Y020690D02*
X017470Y020690D01*
X017470Y019990D02*
X016910Y019990D01*
X016990Y019390D02*
X016890Y019290D01*
X016790Y019390D01*
X015990Y019390D01*
X015890Y019290D01*
X015890Y018490D01*
X015990Y018390D01*
X016790Y018390D01*
X016890Y018490D01*
X016990Y018390D01*
X017790Y018390D01*
X017890Y018490D01*
X017890Y019290D01*
X017790Y019390D01*
X016990Y019390D01*
X016940Y017190D02*
X016840Y017090D01*
X016740Y017190D01*
X015940Y017190D01*
X015840Y017090D01*
X015840Y016290D01*
X015940Y016190D01*
X016740Y016190D01*
X016840Y016290D01*
X016940Y016190D01*
X017740Y016190D01*
X017840Y016290D01*
X017840Y017090D01*
X017740Y017190D01*
X016940Y017190D01*
X015090Y016570D02*
X015090Y016010D01*
X014390Y016010D02*
X014390Y016570D01*
X017040Y013570D02*
X017040Y013010D01*
X017740Y013010D02*
X017740Y013570D01*
X018307Y005491D02*
X018307Y005288D01*
D14*
X001340Y005590D02*
X000840Y005590D01*
X000590Y005840D01*
X000590Y006340D01*
X000840Y006590D01*
X001340Y006590D01*
X001590Y006340D01*
X001840Y006590D01*
X002340Y006590D01*
X002590Y006340D01*
X002590Y005840D01*
X002340Y005590D01*
X001840Y005590D01*
X001590Y005840D01*
X001340Y005590D01*
X006601Y008234D02*
X009042Y008234D01*
X009042Y016920D01*
X009357Y016920D01*
X009357Y008234D01*
X009042Y008234D01*
X006601Y008234D02*
X006601Y016920D01*
X009042Y016920D01*
X009042Y018234D02*
X009042Y026920D01*
X009357Y026920D01*
X009357Y018234D01*
X009042Y018234D01*
X006601Y018234D01*
X006601Y026920D01*
X009042Y026920D01*
D15*
X009040Y029490D02*
X009040Y031490D01*
X007040Y031490D01*
X007040Y029490D01*
X009040Y029490D01*
X008540Y030490D02*
X008040Y030490D01*
X007249Y030490D02*
X007251Y030546D01*
X007257Y030601D01*
X007267Y030656D01*
X007280Y030710D01*
X007298Y030763D01*
X007319Y030815D01*
X007344Y030865D01*
X007372Y030913D01*
X007403Y030959D01*
X007438Y031003D01*
X007476Y031044D01*
X007516Y031083D01*
X007559Y031118D01*
X007605Y031151D01*
X007653Y031180D01*
X007702Y031205D01*
X007753Y031227D01*
X007806Y031246D01*
X007860Y031260D01*
X007915Y031271D01*
X007970Y031278D01*
X008026Y031281D01*
X008082Y031280D01*
X008137Y031275D01*
X008193Y031266D01*
X008247Y031253D01*
X008300Y031237D01*
X008352Y031217D01*
X008403Y031193D01*
X008452Y031166D01*
X008498Y031135D01*
X008542Y031101D01*
X008584Y031064D01*
X008623Y031024D01*
X008660Y030982D01*
X008693Y030937D01*
X008723Y030890D01*
X008749Y030840D01*
X008772Y030789D01*
X008791Y030737D01*
X008807Y030683D01*
X008819Y030629D01*
X008827Y030574D01*
X008831Y030518D01*
X008831Y030462D01*
X008827Y030406D01*
X008819Y030351D01*
X008807Y030297D01*
X008791Y030243D01*
X008772Y030191D01*
X008749Y030140D01*
X008723Y030090D01*
X008693Y030043D01*
X008660Y029998D01*
X008623Y029956D01*
X008584Y029916D01*
X008542Y029879D01*
X008498Y029845D01*
X008452Y029814D01*
X008403Y029787D01*
X008352Y029763D01*
X008300Y029743D01*
X008247Y029727D01*
X008193Y029714D01*
X008137Y029705D01*
X008082Y029700D01*
X008026Y029699D01*
X007970Y029702D01*
X007915Y029709D01*
X007860Y029720D01*
X007806Y029734D01*
X007753Y029753D01*
X007702Y029775D01*
X007653Y029800D01*
X007605Y029829D01*
X007559Y029862D01*
X007516Y029897D01*
X007476Y029936D01*
X007438Y029977D01*
X007403Y030021D01*
X007372Y030067D01*
X007344Y030115D01*
X007319Y030165D01*
X007298Y030217D01*
X007280Y030270D01*
X007267Y030324D01*
X007257Y030379D01*
X007251Y030434D01*
X007249Y030490D01*
X007540Y030490D02*
X008040Y030490D01*
X008040Y030990D01*
X008040Y030490D02*
X008040Y029990D01*
X002640Y021390D02*
X002640Y020890D01*
X002140Y020890D01*
X002140Y018890D01*
X002640Y018890D01*
X002640Y018390D01*
X000440Y018390D01*
X000440Y021390D01*
X002640Y021390D01*
X002640Y020890D02*
X002640Y018890D01*
X002690Y017940D02*
X002690Y017440D01*
X002190Y017440D01*
X002190Y014440D01*
X002690Y014440D01*
X002690Y013940D01*
X000490Y013940D01*
X000490Y017940D01*
X002690Y017940D01*
X002690Y017440D02*
X002690Y014440D01*
X002935Y006335D02*
X003085Y006335D01*
X003010Y006335D02*
X003010Y005960D01*
X002935Y005885D01*
X002860Y005885D01*
X002785Y005960D01*
X003245Y005885D02*
X003245Y006335D01*
X003471Y006335D01*
X003546Y006260D01*
X003546Y006110D01*
X003471Y006035D01*
X003245Y006035D01*
X003706Y006110D02*
X004006Y006110D01*
X003931Y005885D02*
X003931Y006335D01*
X003706Y006110D01*
X006940Y006190D02*
X006940Y004190D01*
X008940Y004190D01*
X008940Y006190D01*
X006940Y006190D01*
X007440Y005190D02*
X007940Y005190D01*
X007149Y005190D02*
X007151Y005246D01*
X007157Y005301D01*
X007167Y005356D01*
X007180Y005410D01*
X007198Y005463D01*
X007219Y005515D01*
X007244Y005565D01*
X007272Y005613D01*
X007303Y005659D01*
X007338Y005703D01*
X007376Y005744D01*
X007416Y005783D01*
X007459Y005818D01*
X007505Y005851D01*
X007553Y005880D01*
X007602Y005905D01*
X007653Y005927D01*
X007706Y005946D01*
X007760Y005960D01*
X007815Y005971D01*
X007870Y005978D01*
X007926Y005981D01*
X007982Y005980D01*
X008037Y005975D01*
X008093Y005966D01*
X008147Y005953D01*
X008200Y005937D01*
X008252Y005917D01*
X008303Y005893D01*
X008352Y005866D01*
X008398Y005835D01*
X008442Y005801D01*
X008484Y005764D01*
X008523Y005724D01*
X008560Y005682D01*
X008593Y005637D01*
X008623Y005590D01*
X008649Y005540D01*
X008672Y005489D01*
X008691Y005437D01*
X008707Y005383D01*
X008719Y005329D01*
X008727Y005274D01*
X008731Y005218D01*
X008731Y005162D01*
X008727Y005106D01*
X008719Y005051D01*
X008707Y004997D01*
X008691Y004943D01*
X008672Y004891D01*
X008649Y004840D01*
X008623Y004790D01*
X008593Y004743D01*
X008560Y004698D01*
X008523Y004656D01*
X008484Y004616D01*
X008442Y004579D01*
X008398Y004545D01*
X008352Y004514D01*
X008303Y004487D01*
X008252Y004463D01*
X008200Y004443D01*
X008147Y004427D01*
X008093Y004414D01*
X008037Y004405D01*
X007982Y004400D01*
X007926Y004399D01*
X007870Y004402D01*
X007815Y004409D01*
X007760Y004420D01*
X007706Y004434D01*
X007653Y004453D01*
X007602Y004475D01*
X007553Y004500D01*
X007505Y004529D01*
X007459Y004562D01*
X007416Y004597D01*
X007376Y004636D01*
X007338Y004677D01*
X007303Y004721D01*
X007272Y004767D01*
X007244Y004815D01*
X007219Y004865D01*
X007198Y004917D01*
X007180Y004970D01*
X007167Y005024D01*
X007157Y005079D01*
X007151Y005134D01*
X007149Y005190D01*
X007940Y005190D02*
X007940Y004690D01*
X007940Y005190D02*
X008440Y005190D01*
X007940Y005190D02*
X007940Y005690D01*
X014065Y005640D02*
X014140Y005715D01*
X014440Y005715D01*
X014515Y005640D01*
X014515Y005490D01*
X014440Y005415D01*
X014140Y005415D01*
X014065Y005490D01*
X014065Y005640D01*
X014065Y005875D02*
X014515Y005875D01*
X014365Y005875D02*
X014065Y006176D01*
X014140Y006336D02*
X014065Y006411D01*
X014065Y006561D01*
X014140Y006636D01*
X014215Y006636D01*
X014515Y006336D01*
X014515Y006636D01*
X014515Y006176D02*
X014290Y005950D01*
X014540Y017315D02*
X014615Y017315D01*
X014690Y017390D01*
X014690Y017765D01*
X014615Y017765D02*
X014765Y017765D01*
X014925Y017765D02*
X014925Y017315D01*
X014925Y017465D02*
X015151Y017465D01*
X015226Y017540D01*
X015226Y017690D01*
X015151Y017765D01*
X014925Y017765D01*
X015386Y017690D02*
X015461Y017765D01*
X015611Y017765D01*
X015686Y017690D01*
X015686Y017615D01*
X015611Y017540D01*
X015686Y017465D01*
X015686Y017390D01*
X015611Y017315D01*
X015461Y017315D01*
X015386Y017390D01*
X015536Y017540D02*
X015611Y017540D01*
X015705Y018665D02*
X015405Y018665D01*
X015705Y018965D01*
X015705Y019040D01*
X015630Y019115D01*
X015480Y019115D01*
X015405Y019040D01*
X015244Y019040D02*
X015244Y018890D01*
X015169Y018815D01*
X014944Y018815D01*
X014944Y018665D02*
X014944Y019115D01*
X015169Y019115D01*
X015244Y019040D01*
X014784Y019115D02*
X014634Y019115D01*
X014709Y019115D02*
X014709Y018740D01*
X014634Y018665D01*
X014559Y018665D01*
X014484Y018740D01*
X014465Y017390D02*
X014540Y017315D01*
X018990Y031415D02*
X018915Y031490D01*
X018915Y031790D01*
X018990Y031865D01*
X019140Y031865D01*
X019215Y031790D01*
X019215Y031490D01*
X019140Y031415D01*
X018990Y031415D01*
X019375Y031415D02*
X019375Y031865D01*
X019450Y031640D02*
X019676Y031415D01*
X019836Y031415D02*
X020136Y031415D01*
X019986Y031415D02*
X019986Y031865D01*
X019836Y031715D01*
X019676Y031865D02*
X019375Y031565D01*
D16*
X018518Y030677D03*
X015212Y005753D03*
M02*
