%
M48
M72
T01C0.0260
T02C0.0350
T03C0.0360
T04C0.0390
T05C0.0394
T06C0.0400
T07C0.0472
T08C0.0620
T09C0.1220
T10C0.1250
T11C0.1280
T12C0.2500
T13C0.2750
%
T01
X1540Y8640
X2790Y16190
X3590Y18840
X5640Y26140
X16440Y21940
X17390Y14390
X11040Y6190
X24290Y8290
X24240Y29190
T02
X20840Y24340
X20840Y23240
X21790Y23040
X21790Y22240
X21790Y21440
X21790Y20640
X22790Y20240
X22790Y21040
X22790Y21840
X22790Y22640
X20840Y19990
X20840Y18940
X20840Y16290
X20840Y15190
X21790Y14990
X21790Y14190
X21790Y13390
X21790Y12590
X22790Y12190
X22790Y12990
X22790Y13790
X22790Y14590
X20840Y11940
X20840Y10890
T03
X17340Y16690
X16340Y16690
X16390Y18890
X17390Y18890
T04
X20090Y26860
X20090Y28040
X20190Y8390
X20190Y7210
T05
X8940Y4190
X7940Y6190
X6940Y4190
X9040Y29490
X9040Y31490
X7040Y30490
T06
X1640Y20890
X1640Y19890
X1640Y18890
X1690Y17440
X1690Y16440
X1690Y15440
X1690Y14440
X2090Y6090
X1090Y6090
T07
X7940Y9140
X7940Y10518
X7940Y11896
X7940Y13274
X7940Y14652
X7940Y16030
X7940Y19140
X7940Y20518
X7940Y21896
X7940Y23274
X7940Y24652
X7940Y26030
T08
X21470Y24840
X21470Y18440
X21470Y16790
X21470Y10390
T09
X21890Y7800
X21790Y27450
T10
X12640Y17640
T11
X23140Y19140
X23140Y16090
X23140Y11090
X23140Y24140
T12
X2640Y2640
X12640Y12640
X12640Y22640
X22640Y32640
X2640Y32640
X22640Y2640
T13
X4640Y12690
X4640Y22640
M30
